<?xml version="1.0" encoding="UTF-8"?>
<!DOCTYPE svg PUBLIC "-//W3C//DTD SVG 1.1//EN" "http://www.w3.org/Graphics/SVG/1.1/DTD/svg11.dtd">
<!-- Creator: CorelDRAW 2020 (64-Bit) -->
<svg xmlns="http://www.w3.org/2000/svg" xml:space="preserve" width="211mm" height="211mm" version="1.1" style="shape-rendering:geometricPrecision; text-rendering:geometricPrecision; image-rendering:optimizeQuality; fill-rule:evenodd; clip-rule:evenodd"
viewBox="0 0 211 211"
 xmlns:xlink="http://www.w3.org/1999/xlink"
 xmlns:xodm="http://www.corel.com/coreldraw/odm/2003">
 <defs>
  <style type="text/css">
   <![CDATA[
    .fil0 {fill:black}
    .fil1 {fill:white}
    .fil2 {fill:black;fill-rule:nonzero}
   ]]>
  </style>
 </defs>
 <g id="Capa_x0020_1">
  <metadata id="CorelCorpID_0Corel-Layer"/>
  <g id="_2911597337840">
   <ellipse class="fil0" cx="105.5182" cy="105.3558" rx="104.8203" ry="104.4999"/>
   <path class="fil1" d="M73.26 204.8138c3.8147,1.6828 7.5518,-0.747 7.2566,-4.077l0.3252 -17.3194c-0.0255,-1.5064 -0.285,-1.1939 -3.1208,-0.8834 -9.4123,1.8291 -28.5521,0.0652 -32.2869,-12.9211 -2.301,-8.0009 -11.8019,-16.9474 -16.0067,-19.5703 -1.5837,-0.988 -0.362,-1.9928 -0.139,-2.1136 7.5041,-4.0653 15.7771,3.4688 23.0622,13.7558 6.5113,6.8111 15.0882,9.9373 28.404,4.6112 -0.2908,-5.1143 2.0685,-9.7398 6.3125,-14.0172 0.5554,-0.617 0.2106,-0.8276 -0.6259,-0.8162 -50.6152,-0.8754 -57.891,-56.4761 -36.2385,-80.1066 -3.9996,-8.9007 -3.4143,-17.8014 0.419,-26.7024 9.1828,-1.5058 18.9999,2.1401 29.4193,10.676 19.2104,-4.6135 36.8207,-4.762 52.7333,-0.1705 9.9463,-8.4104 19.6397,-11.295 28.7613,-10.9178 4.445,6.4363 4.2896,15.0526 0.9015,27.5569 24.9325,33.3439 6.6348,77.8971 -36.5209,80.0721l0 0c10.8329,14.7312 5.2544,48.0332 6.7036,50.3498 2.0229,3.2339 3.1219,3.029 5.9626,2.3304 -21.946,6.7205 -42.3402,7.1707 -65.3224,0.2633z"/>
   <path class="fil2" d="M107.4481 103.1554l9.9938 0c2.1503,2.7102 3.2257,5.5722 3.2257,8.5865 0,3.5062 -1.2603,6.4398 -3.7808,8.8279 -2.5295,2.3792 -5.6315,3.5688 -9.3153,3.5688 -4.7854,0 -8.8481,-1.8424 -12.1883,-5.5275 -3.34,-3.6939 -5.0144,-8.1841 -5.0144,-13.479 0,-5.3128 1.7008,-9.7314 5.1028,-13.2642 3.4017,-3.5331 7.6494,-5.2951 12.7433,-5.2951 1.7448,0 3.675,0.3487 5.79,1.0376l0 10.6615c-1.6567,-0.7515 -3.1638,-1.127 -4.521,-1.127 -2.4675,0 -4.4769,0.7781 -6.0368,2.3344 -1.5599,1.5474 -2.3443,3.5687 -2.3443,6.0464 0,2.531 0.7227,4.5436 2.1769,6.0283 1.4541,1.4847 3.4106,2.2272 5.8781,2.2272 1.5774,0 2.3618,-0.483 2.3618,-1.4401 0,-0.7245 -0.5198,-1.0822 -1.5685,-1.0822l-2.503 0 0 -8.1035z"/>
  </g>
 </g>
</svg>
