<?xml version="1.0" encoding="UTF-8"?>
<!DOCTYPE svg PUBLIC "-//W3C//DTD SVG 1.1//EN" "http://www.w3.org/Graphics/SVG/1.1/DTD/svg11.dtd">
<!-- Creator: CorelDRAW 2020 (64-Bit) -->
<svg xmlns="http://www.w3.org/2000/svg" xml:space="preserve" width="211mm" height="211mm" version="1.1" style="shape-rendering:geometricPrecision; text-rendering:geometricPrecision; image-rendering:optimizeQuality; fill-rule:evenodd; clip-rule:evenodd"
viewBox="0 0 211 211"
 xmlns:xlink="http://www.w3.org/1999/xlink"
 xmlns:xodm="http://www.corel.com/coreldraw/odm/2003">
 <defs>
  <style type="text/css">
   <![CDATA[
    .fil0 {fill:black}
    .fil1 {fill:white;fill-rule:nonzero}
   ]]>
  </style>
 </defs>
 <g id="Capa_x0020_1">
  <metadata id="CorelCorpID_0Corel-Layer"/>
  <circle class="fil0" cx="105.3781" cy="105.3534" r="104.5"/>
  <path class="fil1" d="M70.0177 52.1773c0,7.8125 -4.362,11.7187 -13.0859,11.7187 -8.8541,0 -13.2811,-3.9062 -13.2811,-11.7187 0,-3.483 1.3672,-6.3802 4.1015,-8.6588 2.5391,-2.181 5.5989,-3.2552 9.1796,-3.2552 3.5482,0 6.6406,1.1068 9.2122,3.3203 2.5716,2.2461 3.8737,5.1107 3.8737,8.5937zm-0.7812 25.8462c0,4.8828 -0.293,12.2721 -0.8789,22.1678 -0.586,9.8958 -0.8789,17.3176 -0.8789,22.2655 0,4.6549 0.0976,11.5885 0.2929,20.8332 0.1953,9.2448 0.293,16.1783 0.293,20.7356 0,1.3346 -0.5859,2.0182 -1.7253,2.0182l-18.6196 0c-1.3347,0 -2.0183,-1.3021 -2.0183,-3.9062 0,-4.3945 0.1303,-11.0026 0.3581,-19.7916 0.2279,-8.8215 0.3255,-15.4296 0.3255,-19.8892 0,-4.9479 -0.358,-12.4022 -1.0742,-22.3306 -0.7161,-9.8957 -1.0742,-17.3501 -1.0742,-22.298 0,-1.0742 0.651,-1.6276 1.9857,-1.6276 1.1393,0 2.8971,0.1628 5.2734,0.4883 2.3763,0.2929 4.1666,0.4557 5.371,0.4557 1.2045,0 2.9948,-0.1628 5.3711,-0.4557 2.3763,-0.3255 4.1666,-0.4883 5.3711,-0.4883 1.0742,0 1.6276,0.6185 1.6276,1.8229z"/>
  <path id="1" class="fil1" d="M172.198 164.3185c0,1.3998 -0.651,2.1159 -1.9205,2.1159 -2.0834,0 -5.2409,-0.0325 -9.4075,-0.0976 -4.1667,-0.0651 -7.2917,-0.0977 -9.4075,-0.0977 -1.1393,0 -1.7253,-0.9115 -1.7253,-2.7669 0,-3.125 0.0977,-7.845 0.293,-14.2252 0.1953,-6.3476 0.293,-11.1327 0.293,-14.2903 0,-2.5716 -0.0326,-6.3476 -0.0977,-11.4257 -0.0651,-5.0455 -0.0977,-8.8541 -0.0977,-11.3931 0,-7.2591 -1.0416,-12.3697 -3.1249,-15.3645 -2.5716,-3.5482 -7.2591,-5.3385 -14.1276,-5.3385 -3.1575,0 -7.5845,1.7903 -13.2486,5.371 -5.957,3.7435 -8.9517,7.0963 -8.9517,10.026l0 57.2262c0,1.5625 -0.6185,2.3763 -1.8229,2.3763 -2.0183,0 -5.0781,-0.0325 -9.1471,-0.0976 -4.1016,-0.0651 -7.1289,-0.0977 -9.1797,-0.0977 -1.3346,0 -2.0182,-0.7161 -2.0182,-2.181 0,-5.0455 0.0977,-12.565 0.2604,-22.6235 0.1628,-10.0586 0.2279,-17.6106 0.2279,-22.7212 0,-13.5416 -1.3997,-26.0416 -4.1992,-37.4673 -0.1953,-0.5859 -0.2929,-1.0091 -0.2929,-1.2369 0,-0.6511 0.4231,-1.1068 1.2369,-1.3672 0.4557,-0.0326 4.069,-0.6511 10.9049,-1.7578 6.8359,-1.1068 10.4166,-1.6602 10.7421,-1.6602 0.3581,0 0.6185,0.5209 0.7487,1.53 0.3255,3.9388 1.0417,7.9426 2.181,11.9465 3.3203,-2.6041 7.6822,-5.8593 13.0533,-9.733 6.6731,-4.069 13.151,-6.0872 19.3684,-6.0872 11.9465,0 20.117,3.4505 24.479,10.3841 3.2552,5.1106 4.8828,13.3137 4.8828,24.7068 0,1.9857 -0.0651,4.9805 -0.1628,9.0495 -0.0976,4.0689 -0.1302,7.1288 -0.1302,9.1796 0,4.2317 0.0651,10.6119 0.1953,19.0428 0.1302,8.4635 0.1953,14.8437 0.1953,19.0754z"/>
 </g>
</svg>
