<?xml version="1.0" encoding="UTF-8"?>
<!DOCTYPE svg PUBLIC "-//W3C//DTD SVG 1.1//EN" "http://www.w3.org/Graphics/SVG/1.1/DTD/svg11.dtd">
<!-- Creator: CorelDRAW 2020 (64-Bit) -->
<svg xmlns="http://www.w3.org/2000/svg" xml:space="preserve" width="211mm" height="211mm" version="1.1" style="shape-rendering:geometricPrecision; text-rendering:geometricPrecision; image-rendering:optimizeQuality; fill-rule:evenodd; clip-rule:evenodd"
viewBox="0 0 211 211"
 xmlns:xlink="http://www.w3.org/1999/xlink"
 xmlns:xodm="http://www.corel.com/coreldraw/odm/2003">
 <defs>
  <style type="text/css">
   <![CDATA[
    .str0 {stroke:black;stroke-width:3.5278;stroke-miterlimit:22.9256}
    .fil2 {fill:none}
    .fil0 {fill:black}
    .fil1 {fill:white}
    .fil3 {fill:black;fill-rule:nonzero}
   ]]>
  </style>
 </defs>
 <g id="Capa_x0020_1">
  <metadata id="CorelCorpID_0Corel-Layer"/>
  <g id="_2911597365968">
   <circle class="fil0" cx="105.5781" cy="105.7534" r="104.5"/>
   <rect class="fil1" x="39.796" y="61.7677" width="131.9356" height="84.1025"/>
   <rect class="fil2" x="39.7958" y="61.7677" width="131.9356" height="84.1025"/>
   <polyline class="fil2 str0" points="171.7315,61.7678 114.2381,120.2004 100.8586,120.3226 39.7959,61.7678 "/>
   <line class="fil2 str0" x1="41.9536" y1="145.8703" x2="85.2646" y2= "106.6434" />
   <line class="fil2 str0" x1="171.7315" y1="145.8703" x2="130.733" y2= "105.7019" />
   <path class="fil3" d="M119.4677 92.9429l-2.2636 0 0 0.3202c0,2.7076 -0.874,4.8266 -2.6158,6.3628 -1.7481,1.5362 -4.1563,2.3046 -7.2311,2.3046 -1.2387,0 -2.3896,-0.1538 -3.4459,-0.4673 -1.0564,-0.3139 -2.0309,-0.7874 -2.9301,-1.4276 -1.8299,-1.2866 -3.2322,-2.8805 -4.2003,-4.7882 -0.9747,-1.9074 -1.459,-4.02 -1.459,-6.3499 0,-1.7988 0.3395,-3.5015 1.0251,-5.1082 0.679,-1.6005 1.6977,-3.0662 3.0497,-4.3913 1.1569,-1.1521 2.4145,-2.0227 3.7853,-2.6181 1.3706,-0.5954 2.7981,-0.8898 4.2884,-0.8898 1.2261,0 2.3327,0.1601 3.32,0.4865 0.9808,0.32 1.8422,0.8129 2.5781,1.4722l1.3769 -1.4978 1.1068 0 0.1822 7.2205 -1.358 0c-0.6415,-2.138 -1.5344,-3.7638 -2.6913,-4.8714 -1.1569,-1.1073 -2.5341,-1.6579 -4.1311,-1.6579 -1.1761,0 -2.1317,0.205 -2.8549,0.6083 -0.7231,0.4096 -1.2702,1.0496 -1.6412,1.9266 -0.2828,0.6466 -0.4779,1.5813 -0.5909,2.8039 -0.1069,1.2162 -0.1636,3.6488 -0.1636,7.291 0,5.1273 0.3081,8.2576 0.9244,9.397 0.6098,1.1395 1.7921,1.7091 3.54,1.7091 1.1886,0 2.1067,-0.2688 2.7542,-0.8065 0.6476,-0.5378 0.9684,-1.3059 0.9684,-2.3043l0 -4.7244 -3.207 0 0 -1.1906 11.8843 0 0 1.1906z"/>
  </g>
 </g>
</svg>
