<?xml version="1.0" encoding="UTF-8"?>
<!DOCTYPE svg PUBLIC "-//W3C//DTD SVG 1.1//EN" "http://www.w3.org/Graphics/SVG/1.1/DTD/svg11.dtd">
<!-- Creator: CorelDRAW 2020 (64-Bit) -->
<svg xmlns="http://www.w3.org/2000/svg" xml:space="preserve" width="211mm" height="211mm" version="1.1" style="shape-rendering:geometricPrecision; text-rendering:geometricPrecision; image-rendering:optimizeQuality; fill-rule:evenodd; clip-rule:evenodd"
viewBox="0 0 211 211"
 xmlns:xlink="http://www.w3.org/1999/xlink"
 xmlns:xodm="http://www.corel.com/coreldraw/odm/2003">
 <defs>
  <style type="text/css">
   <![CDATA[
    .fil0 {fill:black}
    .fil1 {fill:white}
    .fil2 {fill:white;fill-rule:nonzero}
   ]]>
  </style>
 </defs>
 <g id="Capa_x0020_1">
  <metadata id="CorelCorpID_0Corel-Layer"/>
  <circle class="fil0" cx="105.3781" cy="105.3534" r="104.5"/>
  <rect class="fil1" x="32.7938" y="52.5537" width="145.0362" height="104.6563" rx="8.1601" ry="8.0011"/>
  <path class="fil0" d="M84.8684 76.5885l43.4808 24.7243c2.6636,1.5144 2.4797,6.1849 0.0874,7.6158l-42.0851 24.8045c-2.9982,1.4795 -8.6427,-0.3902 -8.646,-4.8328l-0.035 -48.4855c-0.0016,-2.6846 5.0266,-5.0612 7.1979,-3.8263z"/>
  <path class="fil2" d="M105.0778 113.8833c-2.0303,1.1896 -4.5557,1.7845 -7.5763,1.7845 -3.3475,0 -5.9866,-0.9427 -7.9178,-2.828 -1.9313,-1.8852 -2.8969,-4.4815 -2.8969,-7.7882 0,-3.3272 1.0549,-6.0393 3.1641,-8.1362 2.1095,-2.097 4.9122,-3.1457 8.4133,-3.1457 2.2085,0 4.1495,0.3126 5.833,0.9377l0 4.4765c-1.6043,-0.9477 -3.5702,-1.4217 -5.8924,-1.4217 -1.9413,0 -3.5258,0.6403 -4.7489,1.9257 -1.2231,1.2855 -1.8371,3.0043 -1.8371,5.1469 0,2.1776 0.5497,3.8613 1.6491,5.0509 1.0942,1.1949 2.5797,1.7896 4.4466,1.7896 1.1189,0 2.0104,-0.1613 2.6689,-0.4889l0 -4.1387 -4.1595 0 0 -3.8108 8.8539 0 0 10.6464z"/>
 </g>
</svg>
